inDegrees=no
num_controls=7
num_derivatives=13
num_iterations=87
num_multipliers=7
num_parameters=0
num_slacks=7
num_states=26
objective=0.458255
objective_accelerations=0.000932
objective_balance=0.000972
objective_effort=0.006920
objective_height=0.428443
objective_ligament=0.020987
solver_duration=922.918326
status=Solve_Succeeded
success=true
DataType=double
version=3
OpenSimVersion=4.5
endheader
time	/jointset/ground_pelvis/pelvis_tilt/value	/jointset/ground_pelvis/pelvis_tx/value	/jointset/ground_pelvis/pelvis_ty/value	/jointset/hip_r/hip_flexion_r/value	/jointset/hip_r/hip_adduction_r/value	/jointset/hip_r/hip_rotation_r/value	/jointset/back/lumbar_extension/value	/jointset/patellofemoral_r/patellar_flexion_r/value	/jointset/knee_r/knee_flexion_r/value	/jointset/knee_r/knee_adduction_r/value	/jointset/knee_r/knee_rotation_r/value	/jointset/ankle_r/ankle_angle_r/value	/jointset/subtalar_r/subtalar_angle_r/value	/jointset/ground_pelvis/pelvis_tilt/speed	/jointset/ground_pelvis/pelvis_tx/speed	/jointset/ground_pelvis/pelvis_ty/speed	/jointset/hip_r/hip_flexion_r/speed	/jointset/hip_r/hip_adduction_r/speed	/jointset/hip_r/hip_rotation_r/speed	/jointset/back/lumbar_extension/speed	/jointset/patellofemoral_r/patellar_flexion_r/speed	/jointset/knee_r/knee_flexion_r/speed	/jointset/knee_r/knee_adduction_r/speed	/jointset/knee_r/knee_rotation_r/speed	/jointset/ankle_r/ankle_angle_r/speed	/jointset/subtalar_r/subtalar_angle_r/speed	/forceset/tau_hip_flexion_r	/forceset/tau_hip_adduction_r	/forceset/tau_hip_rotation_r	/forceset/tau_knee_flexion_r	/forceset/tau_ankle_angle_r	/forceset/tau_subtalar_angle_r	/forceset/tau_lumbar_extension	lambda_cid13_p0	lambda_cid14_p0	lambda_cid14_p1	lambda_cid14_p2	lambda_cid14_p3	lambda_cid14_p4	lambda_cid14_p5	/jointset/ground_pelvis/pelvis_tilt/accel	/jointset/ground_pelvis/pelvis_tx/accel	/jointset/ground_pelvis/pelvis_ty/accel	/jointset/hip_r/hip_flexion_r/accel	/jointset/hip_r/hip_adduction_r/accel	/jointset/hip_r/hip_rotation_r/accel	/jointset/back/lumbar_extension/accel	/jointset/patellofemoral_r/patellar_flexion_r/accel	/jointset/knee_r/knee_flexion_r/accel	/jointset/knee_r/knee_adduction_r/accel	/jointset/knee_r/knee_rotation_r/accel	/jointset/ankle_r/ankle_angle_r/accel	/jointset/subtalar_r/subtalar_angle_r/accel	gamma_cid13_p0	gamma_cid14_p0	gamma_cid14_p1	gamma_cid14_p2	gamma_cid14_p3	gamma_cid14_p4	gamma_cid14_p5
1	0.05101043654417824	0.1398391401150037	0.9392626216605544	0.1346813309794572	-0.08753033922696815	-0.006397479456069216	-0.3270759945691704	0.2451488174790724	0.2451488174792117	-0.1403795771777073	-0.1632076181427825	0.1239860770320846	0.2529447003193406	0.05980663652860042	0.008734076695069906	0.005747908985325461	-0.08713490761876598	0.0009697742117375889	-0.001452014750340049	0.02812243237532531	-0.0193657517351828	-0.01936575173518256	-0.002133528620724516	-0.004475520033756147	0.007535533571320016	0.004836356468494005	0.02139698168027741	0.05098245296203201	0.03834774378519632	-0.1393041456945164	0.01759847223212718	-0.04675700635921265	0.06641715177944817	-28.0231954699125	-45.92329198589372	-32.96091964820199	10.94655062289515	4.691512541411293	-663.6516137870719	24.15510109081919	-0.01527164167292618	-0.03989075278302399	0.006374801059012023	0.004530479914514856	0.009916758780830374	0.04300688212729532	0.2141452532815738	-0.1101386001758618	-0.1101386001758617	-0.003561521336776772	-0.03486140617216822	-0.1126291593125131	-0.04028863653894105	4.465202937341624e-11	2.518696590438427e-14	2.894755984319306e-10	1.999818882285489e-10	-3.939153867500868e-11	-4.955897759586608e-10	1.163977416406483e-10
1.01	0.05160770653763286	0.1399244772124289	0.939320412289118	0.1338102971457963	-0.08752016558733579	-0.006409794194683313	-0.3267840657929429	0.2449497411783922	0.244949741178426	-0.1404010455100294	-0.1632541503334412	0.1240558265811501	0.2529910337480854	0.05964573626681935	0.008332629092036381	0.005810029976827456	-0.08706856905016236	0.001064965611056083	-0.001010780913363466	0.03026205644137646	-0.02044835491907011	-0.02044835491907009	-0.002160196795852508	-0.004830715597458214	0.006413871573206963	0.004430072632554953	0.02186827179008269	0.05096407158928044	0.03841232468137157	-0.139571524846747	0.01779856989229312	-0.04672143748451698	0.06607791711940197	-28.02111093878258	-45.86078673642071	-32.9553634621296	10.96946407332257	4.694189140677277	-663.6372728558007	24.16256338108654	-0.01674309243232034	-0.04037882885576293	0.00610263602302675	0.008179058741353582	0.00932217552264715	0.04470447418202751	0.2136810189411414	-0.1071481628146035	-0.1071481628146906	-0.002228249555668297	-0.03581822236282223	-0.1120104261783997	-0.04083668563713525	3.763244039617323e-11	5.620196889684781e-12	2.646913034438155e-10	2.242659158376364e-10	-5.047546155923557e-11	-4.97899573729477e-10	6.716001769292188e-11
1.02	0.05220331875367136	0.1400057784208651	0.9393788185051625	0.1329400254005011	-0.08750903966470747	-0.006417692026987305	-0.3264707787689204	0.2447398734488147	0.2447398734487338	-0.1404227822808981	-0.1633042283979109	0.1241143443690114	0.2530332966527676	0.05947508104496654	0.007926898897258687	0.005871026481493597	-0.08698248994524695	0.001160230810987935	-0.0005686334884223577	0.03239408193440613	-0.02152403751573296	-0.02152403751573315	-0.002187216329175161	-0.005184694796902126	0.005289181330388668	0.004022251655987092	0.02233956189986775	0.05094569021652363	0.03847690557756781	-0.1398389039989728	0.01799866755246253	-0.04668586860982692	0.06573868245933606	-28.01891794344717	-45.79910989573785	-32.94962997951507	10.99198106112171	4.701836646730003	-663.6350469943387	24.17320070158192	-0.01722263368727471	-0.04074727113185278	0.006149903691840698	0.008478587176873578	0.009931518903505058	0.04318959972020636	0.2126255386772772	-0.1087544827309678	-0.1087544827309668	-0.003631792975715678	-0.03461813332054776	-0.1132348082535553	-0.04059606466469563	3.070471119068244e-11	-4.987153650985088e-11	2.390160169758289e-10	2.400757578392753e-10	7.274740302360726e-12	-4.897989991666456e-10	4.596978923829597e-11
1.03	0.05279717962997234	0.1400830005673526	0.9394378292638045	0.1320707099011758	-0.08749696156130815	-0.006421164418502152	-0.3261362144067689	0.2445192847612624	0.2445192847612749	-0.1404447895511112	-0.1633578389874882	0.1241616008685546	0.25307147299163	0.05929570546510089	0.007516770342091129	0.005930934410506808	-0.08687736279822005	0.001255292722658725	-0.0001256968782865052	0.03451718662712468	-0.02259224067796351	-0.02259224067796388	-0.002214098192424033	-0.005537127901767952	0.00416174563171393	0.003612684618632342	0.02282305608205052	0.05092745645015905	0.03854494378503556	-0.1401153649412635	0.01822484596952815	-0.04665212931363209	0.06538561258096695	-28.01661593599775	-45.72840551243761	-32.94465334211279	11.01638109365667	4.705470786391491	-663.6194241705624	24.17921787698039	-0.01850332404512758	-0.04125964293366305	0.005882515774233653	0.01201684712560215	0.009279016384049949	0.04486792205893018	0.2119123542472682	-0.1056343401706347	-0.1056343401707172	-0.002195400322028238	-0.03551157130547653	-0.1125539171382444	-0.04118668087161951	2.377791932980137e-11	-1.059866040249309e-10	2.133316387580478e-10	2.557991285592056e-10	6.572733119197601e-11	-4.815921963146953e-10	2.506575971727328e-11
1.04	0.05338920508969502	0.1401560986292433	0.9394974333573906	0.1312025430870516	-0.08748393574097499	-0.006420202997835391	-0.3257804671137546	0.2442880578206481	0.2442880578207526	-0.1404670614434213	-0.1634149650425718	0.1241975718178187	0.2531055437285985	0.05910799772887255	0.007102081977891677	0.005989693470314478	-0.08675275290480369	0.001349774197739225	0.0003181289477939803	0.03663066810697649	-0.02365168812825386	-0.0236516881282544	-0.002240140748575505	-0.005887787896065413	0.003032071274489303	0.003201131277248436	0.02330655026421762	0.05090922268378734	0.0386129819924384	-0.1403918258835663	0.01845102438659701	-0.04661839001744392	0.06503254270258256	-28.01420556793608	-45.658519533509	-32.93949835653703	11.04038529615586	4.714115860037827	-663.6157577942399	24.18837582003382	-0.01888906495980291	-0.04165923293823215	0.005920129850732695	0.01237513645476761	0.009815431585450113	0.04336744290913778	0.2107008961039312	-0.1070033403429253	-0.1070033403429235	-0.003463931556241615	-0.03426351120688151	-0.1136825399635335	-0.04099332547052315	2.840566143382315e-11	-6.80123378811016e-11	2.409301149150577e-10	2.669311013041872e-10	2.419257090619654e-11	-4.749964853560439e-10	4.211620422592441e-11
